<svg width="16mm" height="16mm" version="1.1" viewBox="0 0 16 16" xmlns="http://www.w3.org/2000/svg"><g transform="translate(-183.12 -173.39)"><circle cx="191.12" cy="181.39" r="7.5" fill="#c2185b" stroke-width=".25326"/><path d="m187.23 179.09c-0.50462 0-0.9092 0.40457-0.9092 0.90918v3.1821h0.9092a1.3638 1.3638 0 0 0 1.3638 1.3638 1.3638 1.3638 0 0 0 1.3638-1.3638h2.7275a1.3638 1.3638 0 0 0 1.3638 1.3638 1.3638 1.3638 0 0 0 1.3638-1.3638h0.90917v-3.1821c0-0.50461-0.40458-0.90918-0.90917-0.90918h-8.1826m-0.2273 0.68189h1.8184v1.1364h-1.8184v-1.1364m2.5002 0h1.8184v1.1364h-1.8184v-1.1364m2.5003 0h1.8184v1.1364h-1.8184v-1.1364m2.5003 0h1.1365v2.5002l-1.1365-0.90916v-1.591m-5.9097 2.7275a0.68189 0.68188 0 0 1 0.68187 0.68187 0.68189 0.68188 0 0 1-0.68187 0.68188 0.68189 0.68188 0 0 1-0.6819-0.68188 0.68189 0.68188 0 0 1 0.6819-0.68187m5.4551 0a0.68189 0.68188 0 0 1 0.68187 0.68187 0.68189 0.68188 0 0 1-0.68187 0.68188 0.68189 0.68188 0 0 1-0.6819-0.68188 0.68189 0.68188 0 0 1 0.6819-0.68187z" fill="#fff" stroke-width=".45459"/></g></svg>
