<svg width="22" height="12" version="1.1" viewBox="0 0 22 12" xmlns="http://www.w3.org/2000/svg"><path d="m2 0c-1.11 0-2 0.89-2 2v7h2a3 3 0 0 0 3 3 3 3 0 0 0 3-3h6a3 3 0 0 0 3 3 3 3 0 0 0 3-3h2v-7c0-1.11-0.89-2-2-2h-18m-0.5 1.5h4v2.5h-4v-2.5m5.5 0h4v2.5h-4v-2.5m5.5 0h4v2.5h-4v-2.5m5.5 0h2.5v5.5l-2.5-2v-3.5m-13 6a1.5 1.5 0 0 1 1.5 1.5 1.5 1.5 0 0 1-1.5 1.5 1.5 1.5 0 0 1-1.5-1.5 1.5 1.5 0 0 1 1.5-1.5m12 0a1.5 1.5 0 0 1 1.5 1.5 1.5 1.5 0 0 1-1.5 1.5 1.5 1.5 0 0 1-1.5-1.5 1.5 1.5 0 0 1 1.5-1.5z" fill="#fff"/></svg>
